<?xml version="1.0" standalone="no"?>
<!DOCTYPE svg PUBLIC "-//W3C//DTD SVG 20010904//EN"
 "http://www.w3.org/TR/2001/REC-SVG-20010904/DTD/svg10.dtd">
<svg version="1.0" xmlns="http://www.w3.org/2000/svg"
 width="500.000000pt" height="122.000000pt" viewBox="0 0 500.000000 122.000000"
 preserveAspectRatio="xMidYMid meet">
<metadata>
Created by potrace 1.11, written by Peter Selinger 2001-2013
</metadata>
<g transform="translate(0.000000,122.000000) scale(0.100000,-0.100000)"
fill="#000000" stroke="none">
<path d="M1740 1074 c-14 -2 -58 -9 -98 -16 l-74 -11 7 -56 c6 -51 19 -74 47
-83 5 -2 13 -44 18 -93 23 -218 87 -302 245 -322 82 -11 188 0 260 28 112 42
217 174 246 308 12 59 27 73 71 69 36 -3 29 7 114 -172 76 -163 138 -210 314
-237 90 -14 163 -7 223 19 83 37 115 89 145 237 25 124 36 152 60 159 16 5 21
19 25 64 2 31 4 58 3 59 -6 8 -159 34 -255 44 -130 13 -294 1 -426 -32 -142
-35 -220 -35 -385 1 -127 27 -168 32 -330 35 -102 2 -196 2 -210 -1z m315 -54
c139 -15 182 -28 222 -66 34 -33 35 -35 31 -96 -5 -83 -56 -195 -111 -244 -69
-62 -117 -78 -237 -78 -117 0 -149 11 -193 64 -37 43 -49 90 -54 210 -4 92 -2
109 16 137 25 40 66 62 139 72 80 12 86 12 187 1z m1068 -18 c28 -13 51 -31
61 -50 36 -71 28 -215 -18 -318 -34 -73 -80 -94 -209 -94 -121 0 -185 22 -244
82 -55 57 -106 166 -111 240 -4 55 -3 59 30 92 19 19 52 39 74 45 131 35 341
37 417 3z"/>
<path d="M2217 426 c-26 -7 -79 -35 -118 -62 -114 -80 -141 -94 -185 -94 -46
0 -74 22 -74 59 0 28 46 75 65 67 51 -21 51 -21 31 2 -35 40 -114 21 -156 -38
-15 -21 -21 -45 -22 -80 -1 -129 127 -199 341 -187 115 6 232 40 308 91 l53
35 72 -45 c210 -127 539 -108 613 37 59 112 -68 265 -156 189 l-24 -20 27 6
c39 9 64 -3 78 -36 10 -25 10 -34 -4 -55 -17 -25 -27 -29 -81 -25 -38 3 -57
12 -126 66 -98 76 -142 94 -226 94 -54 0 -88 -6 -124 -21 l-49 -21 -47 20
c-65 27 -138 34 -196 18z"/>
</g>
</svg>
